<svg width="66" height="66" viewBox="0 0 66 66" fill="none" xmlns="http://www.w3.org/2000/svg">
<path d="M64.8999 0H15.4C14.7925 0 14.3 0.492524 14.3 1.1V17.6H16.5V2.2H63.7999V62.6999C63.8105 63.2784 63.3642 63.7629 62.7868 63.7999C62.6922 63.7999 62.5976 63.7922 62.503 63.79C62.3083 63.7845 62.1136 63.7801 61.9222 63.7603C61.9057 63.7603 61.8903 63.7603 61.8738 63.7537C58.2812 63.361 55.4434 60.5259 55.0472 56.9337C55.0472 56.9183 55.0417 56.9018 55.0395 56.8864C55.0129 56.625 54.9997 56.3625 54.9999 56.0999V53.8999C54.9999 53.2924 54.5074 52.7999 53.8999 52.7999H16.5V32.9999H14.3V52.7999H5.50002C4.89255 52.7999 4.40002 53.2924 4.40002 53.8999V56.0999C4.40607 61.565 8.83494 65.9938 14.3 65.9999H62.8099C64.5949 65.9531 66.0137 64.4855 65.9999 62.6999V1.1C65.9999 0.492524 65.5074 0 64.8999 0ZM14.3 63.7999C10.0495 63.7951 6.60483 60.3504 6.60002 56.0999V54.9999H52.7999V56.0999C52.8015 56.4626 52.8224 56.8251 52.8626 57.1856C52.8725 57.2813 52.8912 57.3737 52.9044 57.4683C52.9407 57.7345 52.9847 57.9996 53.043 58.2603C53.0628 58.3516 53.0881 58.4418 53.1112 58.5331C53.1783 58.7982 53.2542 59.0589 53.3422 59.3163C53.3675 59.39 53.3939 59.4626 53.4214 59.5363C53.5215 59.8091 53.6348 60.0753 53.7591 60.3382C53.7855 60.3921 53.8097 60.4482 53.8361 60.4977C53.9741 60.7764 54.1254 61.0473 54.2904 61.3106C54.3124 61.3458 54.3322 61.3821 54.3542 61.4206C54.5335 61.7015 54.7271 61.9732 54.9339 62.2346L54.9691 62.2819C55.2092 62.5834 55.4663 62.8709 55.7391 63.1432C55.976 63.3779 56.2216 63.5979 56.4761 63.8032L14.3 63.7999Z" fill="#023047"/>
<path d="M36.2999 30.8008C36.5917 30.8008 36.8714 30.6847 37.0776 30.4785L41.4776 26.0785C41.907 25.6489 41.907 24.9526 41.4776 24.5231L37.0776 20.1231C36.8714 19.9168 36.5917 19.8008 36.2999 19.8008H5.49999C2.46248 19.8008 0 22.2633 0 25.3008C0 28.3383 2.46248 30.8008 5.49999 30.8008H36.2999ZM36.0161 22.1724L39.1445 25.3008L36.0161 28.4292L35.234 25.3008L36.0161 22.1724ZM8.79998 22.0008H33.7919L33.2419 24.2008H11V26.4008H33.2419L33.7919 28.6008H8.79998V22.0008ZM2.2 25.3008C2.2 23.4782 3.67743 22.0008 5.49999 22.0008H6.59999V28.6008H5.49999C3.67743 28.6008 2.2 27.1233 2.2 25.3008Z" fill="#023047"/>
<path d="M25.2998 47.2998H58.2997C58.9072 47.2998 59.3997 46.8072 59.3997 46.1998V13.1998C59.3996 12.5923 58.9071 12.1 58.2995 12.1001C58.0078 12.1001 57.7283 12.216 57.522 12.4221L24.5221 45.4221C24.0925 45.8517 24.0927 46.5482 24.5224 46.9777C24.7286 47.1838 25.0082 47.2998 25.2998 47.2998ZM57.1997 15.8552V18.6998H54.9997V20.8998H57.1997V23.0998H54.9997V25.2998H57.1997V27.4998H54.9997V29.6998H57.1997V31.8998H54.9997V34.0998H57.1997V36.2998H54.9997V38.4998H57.1997V40.6998H54.9997V42.8998H57.1997V45.0998H54.9997V42.8998H52.7997V45.0998H50.5997V42.8998H48.3997V45.0998H46.1998V42.8998H43.9998V45.0998H41.7998V42.8998H39.5998V45.0998H37.3998V42.8998H35.1998V45.0998H32.9998V42.8998H30.7998V45.0998H27.9552L57.1997 15.8552Z" fill="#023047"/>
<path d="M41.2335 40.6999H51.7C52.3075 40.6999 52.8 40.2074 52.8 39.5999V29.1334C52.7999 28.5259 52.3073 28.0336 51.6997 28.0337C51.4081 28.0337 51.1286 28.1496 50.9223 28.3557L40.4558 38.8222C40.0263 39.2519 40.0264 39.9483 40.4561 40.3779C40.6623 40.584 40.9419 40.6999 41.2335 40.6999ZM50.6 31.7899V38.4999H43.89L50.6 31.7899Z" fill="#023047"/>
<path d="M50.5999 6.59961H28.5999V8.7996H50.5999V6.59961Z" fill="#023047"/>
<path d="M53.8998 10.9995H25.2999V13.1995H53.8998V10.9995Z" fill="#023047"/>
<path d="M25.3001 34.0996H18.7001V36.2996H25.3001V34.0996Z" fill="#023047"/>
<path d="M23.1001 38.5005H18.7001V40.7005H23.1001V38.5005Z" fill="#023047"/>
</svg>
