<svg width="474" height="358" viewBox="0 0 474 358" fill="none" xmlns="http://www.w3.org/2000/svg">
<g id="hero-svg">
<path id="Vector" d="M76.1899 113.042H155.387V211.339H76.1899V113.042Z" fill="#DEE3F3"/>
<path id="Vector_2" d="M90.5988 137.115H140.979C141.739 137.115 142.355 137.737 142.355 138.504V150.772C142.355 151.539 141.739 152.161 140.979 152.161H90.5988C89.8387 152.161 89.2225 151.539 89.2225 150.772V138.504C89.2225 137.737 89.8387 137.115 90.5988 137.115Z" fill="#00296B"/>
<path id="Vector_3" d="M102.255 142.13C101.148 142.13 100.25 141.681 100.25 141.127C100.25 140.573 101.148 140.124 102.255 140.124C103.362 140.124 104.26 140.573 104.26 141.127C104.26 141.681 103.362 142.13 102.255 142.13Z" fill="#E86C2D"/>
<path id="Vector_4" d="M97.7438 142.13C96.9133 142.13 96.2401 141.681 96.2401 141.127C96.2401 140.573 96.9133 140.124 97.7438 140.124C98.5743 140.124 99.2476 140.573 99.2476 141.127C99.2476 141.681 98.5743 142.13 97.7438 142.13Z" fill="#E86C2D"/>
<path id="Vector_5" d="M94.2351 142.13C93.6814 142.13 93.2325 141.681 93.2325 141.127C93.2325 140.573 93.6814 140.124 94.2351 140.124C94.7887 140.124 95.2375 140.573 95.2375 141.127C95.2375 141.681 94.7887 142.13 94.2351 142.13Z" fill="#E86C2D"/>
<path id="Vector_6" d="M90.5988 154.167H140.979C141.739 154.167 142.355 154.788 142.355 155.555V167.824C142.355 168.59 141.739 169.212 140.979 169.212H90.5988C89.8387 169.212 89.2225 168.59 89.2225 167.824V155.555C89.2225 154.788 89.8387 154.167 90.5988 154.167Z" fill="#00296B"/>
<path id="Vector_7" d="M102.255 159.182C101.148 159.182 100.25 158.284 100.25 157.176C100.25 156.068 101.148 155.17 102.255 155.17C103.362 155.17 104.26 156.068 104.26 157.176C104.26 158.284 103.362 159.182 102.255 159.182Z" fill="#E86C2D"/>
<path id="Vector_8" d="M97.7438 159.182C96.9133 159.182 96.2401 158.284 96.2401 157.176C96.2401 156.068 96.9133 155.17 97.7438 155.17C98.5743 155.17 99.2476 156.068 99.2476 157.176C99.2476 158.284 98.5743 159.182 97.7438 159.182Z" fill="#E86C2D"/>
<path id="Vector_9" d="M94.2351 159.182C93.6814 159.182 93.2325 158.284 93.2325 157.176C93.2325 156.068 93.6814 155.17 94.2351 155.17C94.7887 155.17 95.2375 156.068 95.2375 157.176C95.2375 158.284 94.7887 159.182 94.2351 159.182Z" fill="#E86C2D"/>
<path id="Vector_10" d="M90.5988 171.218H140.979C141.739 171.218 142.355 171.798 142.355 172.514V183.964C142.355 184.68 141.739 185.26 140.979 185.26H90.5988C89.8387 185.26 89.2225 184.68 89.2225 183.964V172.514C89.2225 171.798 89.8387 171.218 90.5988 171.218Z" fill="#00296B"/>
<path id="Vector_11" d="M102.255 175.23C101.148 175.23 100.25 174.557 100.25 173.726C100.25 172.895 101.148 172.221 102.255 172.221C103.362 172.221 104.26 172.895 104.26 173.726C104.26 174.557 103.362 175.23 102.255 175.23Z" fill="#E86C2D"/>
<path id="Vector_12" d="M97.7438 175.23C96.9133 175.23 96.2401 174.557 96.2401 173.726C96.2401 172.895 96.9133 172.221 97.7438 172.221C98.5743 172.221 99.2476 172.895 99.2476 173.726C99.2476 174.557 98.5743 175.23 97.7438 175.23Z" fill="#E86C2D"/>
<path id="Vector_13" d="M94.2351 175.23C93.6814 175.23 93.2325 174.557 93.2325 173.726C93.2325 172.895 93.6814 172.221 94.2351 172.221C94.7887 172.221 95.2375 172.895 95.2375 173.726C95.2375 174.557 94.7887 175.23 94.2351 175.23Z" fill="#E86C2D"/>
<path id="Vector_14" d="M307.767 336.217C307.767 338.16 305.93 340.046 302.489 341.838C284.842 351.023 224.999 357.782 153.884 357.782C151.085 357.782 148.307 357.771 145.548 357.748C64.4351 357.142 0 347.734 0 336.217C0 324.306 68.8949 314.651 153.884 314.651C177.158 314.651 199.221 315.377 218.995 316.67C223.965 316.997 228.784 317.359 233.452 317.756C235.393 317.917 237.306 318.088 239.191 318.268C248.076 319.097 256.31 320.055 263.759 321.121C267.376 321.638 270.801 322.178 274.036 322.742C282.46 324.216 289.527 325.846 294.986 327.595C303.205 330.24 307.767 333.155 307.767 336.217Z" fill="#219EBB" fill-opacity="0.05"/>
<path id="Vector_15" d="M152.683 150.584C152.683 150.584 151.502 164.913 148.548 166.06C145.594 167.206 180.45 175.23 180.45 175.23L171.588 165.487C171.588 165.487 169.816 150.584 173.951 147.146L152.683 150.584Z" fill="#FFB6B6"/>
<g id="mana">
<path id="Vector_16" d="M114.393 173.224L116.767 165.231C116.767 165.231 110.595 150.655 117.717 149.245C124.838 147.834 125.313 162.88 125.313 162.88L122.464 171.814L114.393 173.224Z" fill="#FFB6B6"/>
<path id="Vector_17" d="M126.315 169.153L118.592 168.209C118.592 168.209 109.422 172.931 109.422 179.07C109.422 185.208 104.113 195.125 104.113 195.125C104.113 195.125 100.251 208.346 108.939 209.291C117.627 210.235 125.35 195.125 125.35 195.125L126.315 169.153Z" fill="#FFB6B6"/>
</g>
<path id="Vector_18" d="M121.877 244.225C121.877 244.225 104.767 228.481 99.8781 229.435C94.9895 230.389 85.2124 231.821 85.2124 238.977C85.2124 246.133 101.345 262.831 101.345 262.831C101.345 262.831 113.566 289.07 125.299 290.024C133.017 290.707 140.688 291.822 148.275 293.364C148.275 293.364 142.898 312.447 145.831 317.695C148.764 322.943 160.008 329.145 160.985 328.668C161.963 328.191 175.651 315.787 181.517 298.135C187.384 280.483 191.294 267.124 185.917 266.17C180.54 265.216 121.877 244.225 121.877 244.225Z" fill="#2F2E41"/>
<path id="Vector_19" d="M87.1741 238.426C87.1741 238.426 83.7714 237.955 84.2575 245.964C84.7436 253.972 86.2019 282.709 88.6324 288.362C91.0629 294.015 91.549 300.61 90.5768 302.966C89.6046 305.321 87.6602 309.09 91.0629 309.561C94.4656 310.032 108.562 308.148 110.021 307.677C111.479 307.206 112.937 299.197 111.965 299.197C110.993 299.197 108.562 298.726 109.535 295.428C110.507 292.131 110.993 292.131 109.535 291.188C108.076 290.246 104.188 288.833 105.16 287.891C106.132 286.949 107.104 264.807 107.104 264.807L87.1741 238.426Z" fill="#2F2E41"/>
<path id="Vector_20" d="M90.8024 308.887C90.8024 308.887 82.3463 306.627 81.3514 311.6C81.3514 311.6 79.8592 319.285 86.3256 321.998C90.4986 323.79 94.4929 325.908 98.2637 328.327C98.2637 328.327 108.709 331.944 109.207 327.423C109.704 322.902 107.217 306.627 107.217 306.627L90.8024 308.887Z" fill="#2F2E41"/>
<path id="Vector_21" d="M146.541 314.499L162.579 302.615C162.579 302.615 159.572 317.242 163.581 319.984L165.412 324.867L160.284 328.694C160.284 328.694 144.537 326.383 146.541 314.499Z" fill="#2F2E41"/>
<path id="Vector_22" d="M169.033 293.692C169.033 293.692 159.122 296.557 160.538 306.585C161.954 316.612 163.769 327.506 163.769 327.506C163.769 327.506 164.314 354.334 171.393 356.244C178.472 358.154 180.36 354.334 180.36 354.334C180.36 354.334 188.407 333.37 186.023 327.117C183.138 319.548 178.98 311.05 180.36 308.495C181.718 305.98 179.416 292.26 169.033 293.692Z" fill="#2F2E41"/>
<path id="Vector_23" d="M174.742 161.752C174.742 161.752 170.859 162.231 164.549 163.191C158.239 164.15 153.871 159.353 150.473 160.312C147.075 161.272 118.922 167.989 118.922 167.989L123.291 201.093C123.291 201.093 117.951 239.475 118.922 246.191C119.893 252.908 107.273 251.949 114.554 260.105C121.835 268.261 134.455 275.458 160.181 273.059C185.907 270.66 189.304 271.14 189.304 267.301C189.304 263.463 183.48 230.839 185.421 227.96C187.363 225.081 191.246 221.723 189.304 218.365C187.363 215.006 185.421 213.087 188.333 210.209C191.246 207.33 192.702 204.451 192.702 203.012C192.702 201.573 199.498 178.064 199.498 178.064C199.498 178.064 196.585 166.549 193.187 166.069C189.79 165.59 186.877 163.191 184.45 163.191C182.023 163.191 180.567 163.671 179.111 163.191L174.742 161.752Z" fill="#219EBB"/>
<path id="Vector_24" d="M184.724 233.406L185.462 241.43L117.292 240.316L118.031 233.406H184.724Z" fill="#CCCCCC"/>
<path id="Vector_25" d="M187.238 245.442L188.47 254.47L114.285 252.464L118.721 248.451V245.442H187.238Z" fill="#CCCCCC"/>
<g id="Cap">
<path id="Vector_26" d="M159.899 156.173C170.695 156.173 179.447 147.64 179.447 137.115C179.447 126.59 170.695 118.058 159.899 118.058C149.102 118.058 140.35 126.59 140.35 137.115C140.35 147.64 149.102 156.173 159.899 156.173Z" fill="#FFB6B6"/>
<path id="Vector_27" d="M166.65 103.677C160.16 102.163 153.314 103.189 147.56 106.536C141.807 109.884 137.597 115.29 135.824 121.611L131.12 120.513C130.706 120.417 130.269 120.486 129.905 120.705C129.542 120.924 129.281 121.275 129.18 121.682L127.667 127.813C127.567 128.22 127.635 128.648 127.857 129.004C128.079 129.359 128.436 129.613 128.85 129.71L181.934 142.096C182.348 142.192 182.786 142.124 183.149 141.904C183.513 141.685 183.774 141.334 183.874 140.927L185.577 134.03C186.372 130.809 186.513 127.469 185.992 124.201C185.471 120.933 184.298 117.8 182.541 114.981C180.783 112.163 178.475 109.714 175.749 107.774C173.022 105.834 169.93 104.442 166.65 103.677Z" fill="#FB8500"/>
</g>
<path id="Subtract" fill-rule="evenodd" clip-rule="evenodd" d="M283.26 94.0062C285.395 82.5494 289.865 73.6242 296.077 66.4223L375.517 82.6471L302.762 59.831C316.91 47.8845 336.859 41.4141 358.227 34.4833C368.949 31.0057 380.028 27.4121 390.911 22.9527C487.06 -16.4431 479.823 74.0382 465.759 128.004C460.085 149.78 447.726 168.392 431.19 181.325C427.716 184.046 424.052 186.514 420.225 188.71C402.266 199.023 380.754 203.28 358.104 199.06C319.245 191.821 290.426 162.201 283.422 126.721L405.16 156.93L282.077 117.074C281.443 109.381 281.837 101.623 283.26 94.0062Z" fill="#F4FAFB"/>
<path id="Subtract_2" fill-rule="evenodd" clip-rule="evenodd" d="M430.319 211.351C430.258 211.566 430.211 211.786 430.169 212.011C430.122 212.261 430.086 212.511 430.063 212.759C429.868 214.647 430.256 216.548 431.176 218.208C432.095 219.867 433.501 221.205 435.205 222.04C436.908 222.876 438.827 223.168 440.702 222.879C442.577 222.59 444.318 221.733 445.691 220.423L435.985 218.787L446.563 219.47C446.563 219.47 446.563 219.47 446.563 219.47C447.419 218.389 448.024 217.13 448.333 215.785C448.642 214.44 448.647 213.044 448.348 211.697C448.171 210.903 447.892 210.139 447.519 209.422C447.669 209.714 447.804 210.013 447.923 210.32L434.283 208.021L447.196 208.853C447.015 208.558 446.817 208.273 446.603 207.999C445.754 206.912 444.673 206.027 443.439 205.41C442.205 204.794 440.849 204.46 439.469 204.433C438.09 204.407 436.722 204.688 435.465 205.258C434.208 205.827 433.094 206.669 432.203 207.723C431.313 208.777 430.669 210.017 430.319 211.351ZM430.319 211.351C430.259 211.566 430.211 211.786 430.169 212.011C430.122 212.261 430.086 212.511 430.063 212.759L443.669 215.537L430.319 211.351Z" fill="#F4FAFB"/>
<path id="Subtract_3" fill-rule="evenodd" clip-rule="evenodd" d="M351.2 2.98833C351.046 3.14968 350.9 3.32186 350.758 3.50077C350.599 3.70044 350.45 3.9037 350.314 4.11263C349.257 5.68811 348.708 7.54985 348.742 9.44675C348.777 11.3436 349.392 13.1845 350.505 14.7208C351.618 16.2572 353.175 17.4153 354.967 18.0389C356.759 18.6625 358.699 18.7215 360.525 18.2081C360.525 18.2081 360.525 18.2081 360.525 18.2081L352.719 12.2129L361.742 17.7748C361.374 17.9381 360.995 18.0752 360.608 18.185C360.995 18.0752 361.374 17.9381 361.742 17.7748C363.006 17.2212 364.13 16.3927 365.034 15.3497C365.937 14.3066 366.596 13.0752 366.963 11.7452C367.179 10.961 367.291 10.1542 367.297 9.34555C367.293 9.67442 367.272 10.003 367.234 10.33L356.262 1.90522L367.279 8.69352C367.257 8.34825 367.216 8.00368 367.155 7.66142C366.915 6.30278 366.375 5.01486 365.574 3.89145C364.773 2.76803 363.731 1.83742 362.525 1.16739C361.319 0.497362 359.979 0.104775 358.602 0.0182577C357.225 -0.0682594 355.846 0.153463 354.565 0.667259C353.285 1.18106 352.135 1.974 351.2 2.98833ZM351.2 2.98834C351.046 3.14969 350.901 3.32187 350.758 3.50079C350.599 3.70045 350.45 3.9037 350.314 4.11262L361.03 12.9438L351.2 2.98834Z" fill="#F4FAFB"/>
<path id="Subtract_4" fill-rule="evenodd" clip-rule="evenodd" d="M257.312 149.311L268.991 141.8L256.512 148.124L256.512 148.124C255.831 146.924 255.427 145.587 255.328 144.211C255.229 142.835 255.439 141.454 255.941 140.169C256.444 138.884 257.227 137.727 258.233 136.783C259.239 135.839 260.443 135.131 261.757 134.711C263.071 134.291 264.463 134.169 265.83 134.355C266.174 134.402 266.515 134.468 266.85 134.552L257.025 142.973L268.395 135.094C268.092 134.957 267.783 134.835 267.467 134.731C268.239 134.983 268.976 135.337 269.66 135.784C270.815 136.539 271.786 137.543 272.504 138.721C273.222 139.899 273.668 141.223 273.81 142.595C273.856 143.024 273.87 143.456 273.851 143.886C273.783 145.782 273.135 147.612 271.994 149.128C270.854 150.644 269.276 151.774 267.473 152.365C265.67 152.957 263.73 152.981 261.913 152.435C260.096 151.889 258.49 150.798 257.312 149.311ZM273.81 142.595L265.76 149.492L273.851 143.887C273.87 143.456 273.856 143.024 273.81 142.595Z" fill="#F4FAFB"/>
<path id="Vector_28" d="M448.675 83.982L448.779 84.0159L448.703 82.9768C448.714 81.549 448.61 80.1226 448.391 78.7116L446.16 48.2345C446.089 47.2618 445.736 46.331 445.143 45.5564C444.55 44.7818 443.744 44.1971 442.824 43.874L427.687 38.5592C426.708 38.2156 425.647 38.1843 424.65 38.4697C423.653 38.755 422.768 39.343 422.12 40.1524L402.154 65.059C401.548 65.7392 400.978 66.4504 400.446 67.1895L399.768 68.0351L399.845 68.06C397.583 71.4818 396.141 75.3798 395.633 79.4502C395.125 83.5205 395.564 87.6532 396.915 91.5261C398.267 95.399 400.494 98.9074 403.424 101.778C406.354 104.649 409.908 106.804 413.808 108.075C417.708 109.347 421.848 109.701 425.907 109.109C429.967 108.517 433.834 106.996 437.209 104.664C440.583 102.333 443.374 99.2529 445.363 95.6654C447.352 92.0778 448.485 88.0795 448.675 83.982L448.675 83.982Z" fill="#3F3D56"/>
<path id="Vector_29" d="M427.084 36.4826C427.359 36.5338 427.629 36.6059 427.892 36.6985L443.714 42.2541C444.719 42.6067 445.6 43.2452 446.247 44.0911C446.894 44.937 447.28 45.9535 447.358 47.0157L449.689 78.8725C449.918 80.3537 450.027 81.851 450.016 83.3498L449.97 84.716C449.723 89.0616 448.469 93.2903 446.308 97.0682C444.146 100.846 441.136 104.07 437.515 106.485C433.894 108.9 429.761 110.441 425.442 110.985C421.124 111.529 416.738 111.061 412.631 109.62L412.786 109.178C416.849 110.602 421.188 111.057 425.458 110.506C429.727 109.955 433.809 108.414 437.377 106.006C440.945 103.598 443.901 100.389 446.009 96.6355C448.117 92.8821 449.319 88.6879 449.519 84.3877L449.548 83.365C449.56 81.8788 449.451 80.3942 449.224 78.9254L446.891 47.0499C446.82 46.0785 446.467 45.149 445.875 44.3754C445.283 43.6019 444.478 43.0181 443.559 42.6956L427.737 37.1401C426.76 36.7979 425.7 36.7672 424.705 37.0521C423.709 37.337 422.826 37.9236 422.178 38.731L421.812 38.4384C422.432 37.6666 423.25 37.0772 424.178 36.7328C425.107 36.3885 426.111 36.302 427.084 36.4826V36.4826Z" fill="#D0CDE1"/>
<path id="Vector_30" d="M416.354 71.128L431.309 45.9082L430.789 45.5995L415.834 70.8193L416.354 71.128Z" fill="#D0CDE1"/>
<path id="Vector_31" d="M432.073 76.6473L432.672 76.7319L436.772 47.6993L436.172 47.6147L432.073 76.6473Z" fill="#D0CDE1"/>
<path id="Vector_32" d="M431.026 22.9713L451.301 30.0899C451.451 30.1437 451.574 30.255 451.643 30.3993C451.712 30.5437 451.721 30.7094 451.668 30.8603C451.615 31.0112 451.504 31.135 451.36 31.2047C451.217 31.2743 451.051 31.2842 450.9 31.2321L430.625 24.1135C430.55 24.0875 430.48 24.0469 430.421 23.9939C430.361 23.9409 430.312 23.8767 430.278 23.8049C430.243 23.733 430.223 23.6551 430.218 23.5754C430.214 23.4958 430.225 23.416 430.251 23.3407C430.278 23.2654 430.319 23.1961 430.372 23.1368C430.426 23.0774 430.49 23.0292 430.562 22.9948C430.634 22.9605 430.712 22.9408 430.792 22.9367C430.872 22.9327 430.951 22.9444 431.026 22.9713V22.9713Z" fill="#3F3D56"/>
<path id="Vector_33" d="M429.665 27.3049L449.94 34.4235C450.015 34.4495 450.085 34.4901 450.144 34.5431C450.204 34.596 450.252 34.6603 450.287 34.7321C450.322 34.8039 450.342 34.8819 450.347 34.9616C450.351 35.0412 450.34 35.121 450.313 35.1963C450.287 35.2716 450.246 35.3409 450.193 35.4002C450.139 35.4596 450.075 35.5078 450.003 35.5421C449.931 35.5765 449.853 35.5962 449.773 35.6003C449.693 35.6043 449.614 35.5926 449.539 35.5657L429.264 28.4471C429.189 28.4211 429.119 28.3805 429.06 28.3275C429 28.2745 428.951 28.2103 428.917 28.1385C428.882 28.0667 428.862 27.9887 428.857 27.909C428.853 27.8294 428.864 27.7496 428.89 27.6743C428.917 27.599 428.958 27.5297 429.011 27.4704C429.064 27.411 429.129 27.3628 429.201 27.3284C429.273 27.2941 429.351 27.2744 429.431 27.2703C429.51 27.2663 429.59 27.278 429.665 27.3049V27.3049Z" fill="#3F3D56"/>
<path id="Vector_34" d="M428.304 31.6383L448.579 38.7569C448.729 38.8107 448.852 38.922 448.921 39.0663C448.99 39.2107 448.999 39.3764 448.946 39.5273C448.893 39.6782 448.782 39.802 448.638 39.8717C448.494 39.9413 448.329 39.9512 448.177 39.8991L427.903 32.7805C427.753 32.7266 427.629 32.6154 427.561 32.471C427.492 32.3266 427.483 32.1609 427.536 32.01C427.589 31.8591 427.699 31.7353 427.843 31.6657C427.987 31.596 428.153 31.5862 428.304 31.6383L428.304 31.6383Z" fill="#3F3D56"/>
<path id="Vector_35" d="M442.594 22.457C438.572 21.045 434.525 22.1417 433.554 24.9065L448.118 30.0198C449.088 27.255 446.615 23.8691 442.594 22.457Z" fill="#3F3D56"/>
<path id="Vector_36" d="M424.385 78.5243C425.25 78.8278 425.855 79.6692 426.171 80.2164C426.275 80.3958 426.374 80.5803 426.474 80.7652C426.835 81.4385 427.176 82.0744 427.741 82.4781C428.988 83.3696 430.763 82.7794 432.334 82.0842L432.579 82.6376C430.852 83.4024 428.885 84.0396 427.389 82.9706C426.71 82.4849 426.318 81.7562 425.94 81.0516C425.844 80.8721 425.748 80.6932 425.647 80.5192C425.319 79.9503 424.629 78.9993 423.697 79.0154C423.298 79.0552 422.912 79.1759 422.561 79.3702C422.297 79.4998 422.024 79.6086 421.743 79.6956C421.179 79.8476 420.582 79.8292 420.027 79.6427C419.473 79.4562 418.987 79.11 418.629 78.6476C418.503 78.4741 418.386 78.2939 418.28 78.1077C418.069 77.7527 417.87 77.4176 417.561 77.2516C417.103 77.0055 416.538 77.1878 415.938 77.38C415.32 77.5785 414.681 77.7838 414.037 77.5838C414.016 77.5772 413.995 77.5703 413.974 77.5631C412.836 77.1634 412.537 75.7665 412.411 74.7421L413.012 74.6687C413.183 76.0611 413.567 76.8093 414.217 77.0057C414.678 77.1491 415.2 76.9813 415.753 76.8038C416.446 76.581 417.163 76.351 417.847 76.7183C418.305 76.9637 418.557 77.3881 418.801 77.7985C418.896 77.9656 419 78.1274 419.112 78.2833C419.398 78.6463 419.784 78.9181 420.222 79.0654C420.66 79.2128 421.131 79.2294 421.578 79.1132C421.829 79.0345 422.073 78.9366 422.308 78.8204C422.733 78.5881 423.203 78.4483 423.686 78.4102C423.924 78.4062 424.16 78.4448 424.385 78.5243Z" fill="#D0CDE1"/>
</g>
</svg>
