<svg width="65" height="64" viewBox="0 0 65 64" fill="none" xmlns="http://www.w3.org/2000/svg">
<path d="M63.3021 0H1.07292C0.788361 0 0.515461 0.113039 0.31425 0.31425C0.113039 0.515461 0 0.788361 0 1.07292V5.36458C0 5.64914 0.113039 5.92204 0.31425 6.12325C0.515461 6.32446 0.788361 6.4375 1.07292 6.4375H11.8021V7.51042C11.8021 7.79497 11.689 8.06787 11.4878 8.26908C11.2866 8.47029 11.0137 8.58333 10.7292 8.58333H10.0028C9.34791 8.58338 8.70862 8.78318 8.17026 9.15608C7.63191 9.52897 7.2201 10.0572 6.98983 10.6703C6.75955 11.2833 6.72175 11.9521 6.88149 12.5872C7.04122 13.2223 7.39088 13.7936 7.88379 14.2247L11.3053 17.2192L7.82478 20.6998C7.62364 20.901 7.51065 21.1738 7.51065 21.4583C7.51065 21.7428 7.62364 22.0157 7.82478 22.2169L12.4308 26.8229L7.82478 31.4289C7.62364 31.6301 7.51065 31.903 7.51065 32.1875C7.51065 32.472 7.62364 32.7449 7.82478 32.9461L32.1875 57.3088V63.3021H34.3333V57.3088L36.1283 55.5138C38.0392 57.0887 40.4405 57.9461 42.9167 57.9375C45.7613 57.9344 48.4884 56.803 50.4999 54.7915C52.5113 52.7801 53.6427 50.0529 53.6458 47.2083C53.6546 44.7321 52.7972 42.3307 51.2221 40.42L53.0171 38.625H59.0104V36.4792H53.0171L31.1146 14.5766V6.4375H63.3021C63.5866 6.4375 63.8595 6.32446 64.0607 6.12325C64.262 5.92204 64.375 5.64914 64.375 5.36458V1.07292C64.375 0.788361 64.262 0.515461 64.0607 0.31425C63.8595 0.113039 63.5866 0 63.3021 0V0ZM9.29575 12.61C9.13127 12.4663 9.01457 12.2757 8.96127 12.0639C8.90796 11.8521 8.92059 11.629 8.99745 11.4245C9.07432 11.2201 9.21176 11.0439 9.39141 10.9197C9.57106 10.7954 9.78436 10.729 10.0028 10.7292H10.7292C11.5828 10.7292 12.4015 10.39 13.0052 9.78642C13.6088 9.18278 13.9479 8.36408 13.9479 7.51042V6.4375H24.6771V14.5766L23.6042 15.6496L18.9981 11.0435C18.7969 10.8424 18.5241 10.7294 18.2396 10.7294C17.9551 10.7294 17.6822 10.8424 17.481 11.0435L12.8256 15.6989L9.29575 12.61ZM34.3333 31.1146C34.3333 32.3878 33.9558 33.6324 33.2484 34.6911C32.5411 35.7497 31.5357 36.5748 30.3594 37.0621C29.1831 37.5493 27.8887 37.6768 26.6399 37.4284C25.3912 37.18 24.2441 36.5669 23.3438 35.6666C22.4435 34.7663 21.8304 33.6192 21.582 32.3705C21.3336 31.1217 21.4611 29.8274 21.9484 28.6511C22.4356 27.4748 23.2607 26.4694 24.3193 25.762C25.378 25.0546 26.6226 24.6771 27.8958 24.6771C29.6026 24.6788 31.2391 25.3576 32.446 26.5645C33.6528 27.7714 34.3316 29.4078 34.3333 31.1146V31.1146ZM18.2396 13.3192L22.0871 17.1667L13.9479 25.3058L10.1004 21.4583L18.2396 13.3192ZM51.5 47.2083C51.4974 49.484 50.5923 51.6657 48.9832 53.2748C47.374 54.884 45.1923 55.7891 42.9167 55.7917C41.0106 55.7966 39.1584 55.159 37.6594 53.9817L49.69 41.951C50.8673 43.4501 51.505 45.3022 51.5 47.2083ZM51.0558 37.5521L33.2604 55.3475L10.1004 32.1875L24.6771 17.6109V23.1632C22.8305 23.9102 21.3013 25.2761 20.3513 27.0269C19.4014 28.7778 19.0901 30.8045 19.4705 32.7597C19.851 34.715 20.8997 36.477 22.4369 37.7438C23.974 39.0107 25.9039 39.7035 27.8958 39.7035C29.8877 39.7035 31.8177 39.0107 33.3548 37.7438C34.8919 36.477 35.9406 34.715 36.3211 32.7597C36.7016 30.8045 36.3902 28.7778 35.4403 27.0269C34.4904 25.2761 32.9611 23.9102 31.1146 23.1632V17.6109L51.0558 37.5521ZM62.2292 4.29167H30.0417C29.7571 4.29167 29.4842 4.40471 29.283 4.60592C29.0818 4.80713 28.9687 5.08003 28.9687 5.36458V22.6053C28.2569 22.5066 27.5348 22.5066 26.8229 22.6053V5.36458C26.8229 5.08003 26.7099 4.80713 26.5087 4.60592C26.3075 4.40471 26.0346 4.29167 25.75 4.29167H2.14583V2.14583H62.2292V4.29167Z" fill="#023047"/>
<path d="M24.6771 31.1147C24.6771 31.7514 24.8658 32.3737 25.2195 32.903C25.5732 33.4323 26.0759 33.8449 26.6641 34.0885C27.2522 34.3321 27.8994 34.3958 28.5238 34.2717C29.1481 34.1475 29.7217 33.8409 30.1718 33.3907C30.622 32.9406 30.9285 32.3671 31.0527 31.7427C31.1769 31.1183 31.1132 30.4711 30.8695 29.883C30.6259 29.2948 30.2134 28.7921 29.6841 28.4385C29.1547 28.0848 28.5324 27.896 27.8958 27.896C27.0421 27.896 26.2234 28.2351 25.6198 28.8387C25.0162 29.4424 24.6771 30.2611 24.6771 31.1147V31.1147ZM28.9687 31.1147C28.9687 31.327 28.9058 31.5344 28.7879 31.7108C28.67 31.8873 28.5024 32.0248 28.3064 32.106C28.1103 32.1872 27.8946 32.2084 27.6865 32.167C27.4784 32.1257 27.2872 32.0235 27.1371 31.8734C26.9871 31.7234 26.8849 31.5322 26.8435 31.3241C26.8021 31.1159 26.8234 30.9002 26.9046 30.7042C26.9858 30.5081 27.1233 30.3405 27.2997 30.2226C27.4762 30.1048 27.6836 30.0418 27.8958 30.0418C28.1804 30.0418 28.4533 30.1549 28.6545 30.3561C28.8557 30.5573 28.9687 30.8302 28.9687 31.1147Z" fill="#023047"/>
</svg>
