<svg width="74" height="33" viewBox="0 0 74 33" fill="none" xmlns="http://www.w3.org/2000/svg">
<path d="M5.13867 20.999H15.7139V25H0.158203V0.828125H5.13867V20.999ZM17.5234 15.8525C17.5234 14.0706 17.8665 12.4824 18.5527 11.0879C19.2389 9.69336 20.224 8.61426 21.5078 7.85059C22.8027 7.08691 24.3024 6.70508 26.0068 6.70508C28.4307 6.70508 30.4062 7.44661 31.9336 8.92969C33.472 10.4128 34.3298 12.4271 34.5068 14.9727L34.54 16.2012C34.54 18.957 33.7708 21.1706 32.2324 22.8418C30.694 24.502 28.6299 25.332 26.04 25.332C23.4502 25.332 21.3805 24.502 19.8311 22.8418C18.2926 21.1816 17.5234 18.9238 17.5234 16.0684V15.8525ZM22.3213 16.2012C22.3213 17.9056 22.6423 19.2116 23.2842 20.1191C23.9261 21.0156 24.8447 21.4639 26.04 21.4639C27.2021 21.4639 28.1097 21.0212 28.7627 20.1357C29.4157 19.2393 29.7422 17.8115 29.7422 15.8525C29.7422 14.1813 29.4157 12.8864 28.7627 11.9678C28.1097 11.0492 27.1911 10.5898 26.0068 10.5898C24.8337 10.5898 23.9261 11.0492 23.2842 11.9678C22.6423 12.8753 22.3213 14.2865 22.3213 16.2012ZM36.7979 15.8857C36.7979 13.1299 37.4508 10.9108 38.7568 9.22852C40.0739 7.54622 41.8447 6.70508 44.0693 6.70508C46.0394 6.70508 47.5723 7.38021 48.668 8.73047L48.8672 7.03711H53.2168V24.4023C53.2168 25.974 52.8571 27.3408 52.1377 28.5029C51.4294 29.665 50.4277 30.5505 49.1328 31.1592C47.8379 31.7679 46.3216 32.0723 44.584 32.0723C43.2669 32.0723 41.9831 31.8066 40.7324 31.2754C39.4818 30.7552 38.5355 30.0801 37.8936 29.25L40.0186 26.3281C41.2139 27.6673 42.6637 28.3369 44.3682 28.3369C45.641 28.3369 46.6315 27.9938 47.3398 27.3076C48.0482 26.6325 48.4023 25.6696 48.4023 24.4189V23.4561C47.2956 24.7067 45.8402 25.332 44.0361 25.332C41.8779 25.332 40.1292 24.4909 38.79 22.8086C37.4619 21.1152 36.7979 18.874 36.7979 16.085V15.8857ZM41.5957 16.2344C41.5957 17.8613 41.9222 19.1396 42.5752 20.0693C43.2282 20.988 44.1247 21.4473 45.2646 21.4473C46.7256 21.4473 47.7715 20.8994 48.4023 19.8037V12.25C47.7604 11.1543 46.7256 10.6064 45.2979 10.6064C44.1468 10.6064 43.2393 11.0768 42.5752 12.0176C41.9222 12.9583 41.5957 14.3639 41.5957 16.2344ZM56.1719 15.8525C56.1719 14.0706 56.515 12.4824 57.2012 11.0879C57.8874 9.69336 58.8724 8.61426 60.1562 7.85059C61.4512 7.08691 62.9508 6.70508 64.6553 6.70508C67.0791 6.70508 69.0547 7.44661 70.582 8.92969C72.1204 10.4128 72.9782 12.4271 73.1553 14.9727L73.1885 16.2012C73.1885 18.957 72.4193 21.1706 70.8809 22.8418C69.3424 24.502 67.2783 25.332 64.6885 25.332C62.0986 25.332 60.029 24.502 58.4795 22.8418C56.9411 21.1816 56.1719 18.9238 56.1719 16.0684V15.8525ZM60.9697 16.2012C60.9697 17.9056 61.2907 19.2116 61.9326 20.1191C62.5745 21.0156 63.4932 21.4639 64.6885 21.4639C65.8506 21.4639 66.7581 21.0212 67.4111 20.1357C68.0641 19.2393 68.3906 17.8115 68.3906 15.8525C68.3906 14.1813 68.0641 12.8864 67.4111 11.9678C66.7581 11.0492 65.8395 10.5898 64.6553 10.5898C63.4821 10.5898 62.5745 11.0492 61.9326 11.9678C61.2907 12.8753 60.9697 14.2865 60.9697 16.2012Z" fill="white"/>
</svg>
