<svg width="36" height="29" viewBox="0 0 36 29" fill="none" xmlns="http://www.w3.org/2000/svg">
<path d="M36 7.55621V23.4474C36 26.1947 33.7737 28.4211 31.0263 28.4211H4.97368C3.65458 28.4211 2.3895 27.897 1.45676 26.9643C0.524011 26.0315 0 24.7665 0 23.4474V7.55621L17.4297 17.1436C17.7849 17.3387 18.216 17.3387 18.5703 17.1436L36 7.55526V7.55621ZM31.0263 2.13899e-08C32.3247 0.000120653 33.5715 0.507934 34.5005 1.41497C35.4295 2.322 35.9669 3.55634 35.9981 4.85432L18 14.7543L0.0018946 4.85337L0.00378965 4.76811C0.0568447 3.48561 0.60367 2.27329 1.52991 1.38465C2.45616 0.496015 3.69009 -0.000118945 4.97368 2.13899e-08H31.0263Z" fill="#023047"/>
</svg>
