<svg width="60" height="65" viewBox="0 0 60 65" fill="none" xmlns="http://www.w3.org/2000/svg">
<path d="M59.0506 24.9463L53.485 24.4078C52.8944 22.0288 51.9409 19.7555 50.6591 17.6683L54.2067 13.3685C54.5551 12.9466 54.5262 12.3283 54.1406 11.9411L48.1207 5.8967C47.735 5.50953 47.1192 5.48102 46.6989 5.83036L42.4131 9.39315C40.3306 8.11554 38.0689 7.15876 35.7035 6.55494L35.1666 0.959374C35.1144 0.415158 34.6586 0 34.1139 0H25.8866C25.3419 0 24.8866 0.415158 24.8345 0.959374L24.297 6.55494C21.9316 7.15824 19.67 8.11554 17.5874 9.39315L13.3016 5.82932C12.8819 5.47999 12.266 5.50849 11.8798 5.89566L5.8599 11.9406C5.47427 12.3283 5.44536 12.9466 5.79383 13.3685L9.34042 17.6678C8.05756 19.755 7.10354 22.0288 6.51244 24.4083L0.949907 24.9473C0.408883 25.0002 -0.00256395 25.4579 1.73738e-05 26.0036V34.5722C-0.00308016 35.1174 0.408366 35.5756 0.94939 35.6285L6.51863 36.1675C7.11902 38.5418 8.07149 40.813 9.34352 42.9039L5.79331 47.2063C5.42936 47.6473 5.47943 48.2988 5.90688 48.6788L10.4731 52.7334C10.6987 52.934 10.9991 53.0283 11.2991 52.9926C11.5985 52.9563 11.8685 52.7935 12.0409 52.5453L18.6034 43.0915C18.8961 42.6696 18.8455 42.0974 18.4831 41.7335C12.187 35.4123 12.1865 25.163 18.4831 18.8412C24.7797 12.5195 34.9885 12.5195 41.2851 18.8412C47.5817 25.163 47.5817 35.4123 41.2851 41.7335C40.918 42.102 40.8716 42.6831 41.1751 43.1055L47.9684 52.5587C48.1429 52.8018 48.4118 52.9594 48.7087 52.9926C49.0055 53.0257 49.3024 52.9314 49.5259 52.7329L54.0936 48.6798C54.5211 48.3004 54.5717 47.6484 54.2072 47.2068L50.658 42.9039C51.9306 40.813 52.8836 38.5424 53.4845 36.1675L59.0506 35.6285C59.5916 35.5756 60.0031 35.1174 60 34.5722V26.0026C60.0026 25.4573 59.5916 24.9992 59.0506 24.9463V24.9463ZM57.8854 33.6076L52.5232 34.127C52.0679 34.171 51.6931 34.5053 51.5955 34.9542C51.0127 37.6084 49.9528 40.1335 48.4686 42.4068C48.2146 42.7966 48.2435 43.3071 48.5394 43.6652L51.9259 47.7697L49.0004 50.3663L43.4032 42.5773C49.8842 35.3994 49.6766 24.2637 42.7801 17.3397C35.6694 10.2007 24.0988 10.2007 16.9881 17.3397C10.0879 24.2673 9.88403 35.4113 16.3748 42.5882L10.9847 50.3534L8.07408 47.7691L11.4601 43.6647C11.7559 43.3055 11.7843 42.7955 11.5303 42.4058C10.0456 40.133 8.98525 37.6079 8.40086 34.9542C8.30484 34.5058 7.93108 34.1715 7.47678 34.127L2.11455 33.6076V26.9677L7.47678 26.4478C7.93417 26.4032 8.31 26.0669 8.4055 25.6154C8.97441 22.9607 10.0343 20.4371 11.5293 18.1742C11.7864 17.7839 11.7585 17.2708 11.4612 16.9106L8.03587 12.7585L12.6945 8.08082L16.8301 11.5192C17.1873 11.8167 17.6958 11.8452 18.0835 11.5897C20.3473 10.0991 22.8624 9.03449 25.5056 8.44829C25.9532 8.34878 26.2856 7.97146 26.3295 7.5138L26.8468 2.12348H33.1537L33.6715 7.5138C33.7154 7.97146 34.0479 8.34878 34.4949 8.44829C37.1386 9.03449 39.6538 10.0996 41.9175 11.5902C42.3052 11.8458 42.8137 11.8172 43.1709 11.5197L47.306 8.08134L51.9646 12.7585L48.5399 16.9106C48.243 17.2708 48.2157 17.7839 48.4728 18.1737C49.9683 20.4366 51.0282 22.9607 51.5976 25.6154C51.6915 26.0664 52.0663 26.4032 52.5227 26.4478L57.8854 26.9672V33.6076Z" fill="#023047"/>
<path d="M33.7874 48.9144V32.6986C36.5222 31.1442 38.3176 28.1932 38.3176 25.1521C38.3176 20.9966 35.9034 17.97 31.8595 17.0569C31.5226 16.9808 31.1698 17.0668 30.9081 17.2885C30.6469 17.5106 30.5081 17.8417 30.5346 18.1807L30.8932 22.7127C29.9873 23.1804 28.9065 23.181 28.0001 22.7137L28.3857 18.1567C28.4154 17.8063 28.2681 17.4642 27.9916 17.2415C27.715 17.0189 27.3452 16.9443 27.0025 17.0423C23.304 18.0967 21 21.2276 21 25.2141C21 28.8732 22.9507 31.833 26.2057 33.1158V49.269C23.9 50.6087 21.6787 53.327 21.7136 56.7859C21.7136 60.9075 24.1008 63.9544 28.0922 64.9373C28.4313 65.0208 28.79 64.9389 29.057 64.7173C29.324 64.4956 29.4665 64.1614 29.44 63.8188L29.0829 59.2873C29.9883 58.8196 31.0696 58.819 31.9761 59.2858L31.5904 63.8433C31.5607 64.1937 31.708 64.5358 31.9846 64.7585C32.2611 64.9811 32.6309 65.0557 32.9737 64.9577C36.6541 63.908 38.9629 60.7928 39 56.8161C39.0005 53.1565 37.0244 50.1972 33.7874 48.9144V48.9144ZM33.9035 62.244L34.1922 58.829C34.2229 58.4655 34.0635 58.1119 33.7689 57.8908L33.7281 57.8601C31.8177 56.4328 29.1709 56.4501 27.2801 57.9018C26.9961 58.1224 26.8425 58.4681 26.8706 58.8232L27.1476 62.3363C25.0587 61.3116 23.8905 59.3541 23.8905 56.7754C23.8624 53.9658 25.8724 51.7512 27.7579 50.8814C28.1378 50.7051 28.3789 50.3276 28.3762 49.9141V32.3592C28.3789 31.8893 28.0679 31.4737 27.6112 31.3366C24.8717 30.5226 23.1737 28.1765 23.1737 25.2131C23.1737 22.8264 24.2524 20.8532 26.0711 19.755L25.7834 23.17C25.7527 23.534 25.9127 23.8881 26.2083 24.1086L26.2486 24.1389C28.1563 25.5656 30.8005 25.5505 32.6908 24.1024C32.7003 24.0951 32.7109 24.0867 32.7199 24.0794C32.9901 23.8578 33.1342 23.5209 33.1072 23.1757L32.8264 19.6251C34.9572 20.6081 36.1487 22.5568 36.1487 25.1526C36.1487 27.5722 34.5408 30.0136 32.2383 31.0899C31.8601 31.2667 31.619 31.6422 31.619 32.0546V49.6706C31.619 50.1414 31.9327 50.5565 32.3904 50.6926C35.1304 51.5071 36.8316 53.8532 36.8316 56.8067C36.8083 59.183 35.7206 61.1494 33.904 62.244H33.9035Z" fill="#023047"/>
</svg>
