<svg width="20" height="20" viewBox="0 0 20 20" fill="none" xmlns="http://www.w3.org/2000/svg">
<path d="M0.932325 3.16019L3.51724 0.57767C3.69958 0.394523 3.91631 0.249209 4.15498 0.150074C4.39365 0.0509392 4.64955 -6.19408e-05 4.90799 5.64551e-08C5.43468 5.64551e-08 5.92982 0.206311 6.30117 0.57767L9.08269 3.35922C9.26583 3.54157 9.41114 3.7583 9.51028 3.99698C9.60941 4.23565 9.66041 4.49156 9.66035 4.75C9.66035 5.2767 9.45404 5.77184 9.08269 6.1432L7.04874 8.17718C7.52484 9.2266 8.18677 10.1813 9.00259 10.9951C9.81636 11.813 10.7709 12.4773 11.8205 12.9563L13.8545 10.9223C14.0368 10.7392 14.2535 10.5939 14.4922 10.4947C14.7309 10.3956 14.9868 10.3446 15.2452 10.3447C15.7719 10.3447 16.267 10.551 16.6384 10.9223L19.4223 13.7015C19.6057 13.8841 19.7511 14.1013 19.8503 14.3404C19.9494 14.5795 20.0003 14.8358 20 15.0947C20 15.6214 19.7937 16.1165 19.4223 16.4879L16.8423 19.068C16.2501 19.6626 15.4321 20 14.5923 20C14.4151 20 14.2452 19.9854 14.0778 19.9563C10.806 19.4175 7.56087 17.6772 4.94197 15.0607C2.32551 12.4466 0.587669 9.20388 0.0415611 5.92233C-0.123484 4.9199 0.209036 3.88835 0.932325 3.16019Z" fill="#023047"/>
</svg>
