<svg width="34" height="34" viewBox="0 0 34 34" fill="none" xmlns="http://www.w3.org/2000/svg">
<path d="M1.58495 5.37233L5.9793 0.982039C6.28929 0.67069 6.65773 0.423655 7.06347 0.255126C7.4692 0.0865967 7.90424 -0.000105299 8.34359 9.59737e-08C9.23896 9.59737e-08 10.0807 0.350728 10.712 0.982039L15.4406 5.71068C15.7519 6.02067 15.9989 6.38911 16.1675 6.79486C16.336 7.2006 16.4227 7.63565 16.4226 8.075C16.4226 8.97039 16.0719 9.81214 15.4406 10.4434L11.9829 13.9012C12.7922 15.6852 13.9175 17.3082 15.3044 18.6917C16.6878 20.082 18.3106 21.2114 20.0949 22.0257L23.5526 18.568C23.8626 18.2566 24.231 18.0096 24.6367 17.841C25.0425 17.6725 25.4775 17.5858 25.9169 17.5859C26.8122 17.5859 27.654 17.9366 28.2853 18.568L33.018 23.2925C33.3297 23.603 33.5769 23.9722 33.7455 24.3786C33.914 24.7851 34.0005 25.2209 34 25.6609C34 26.5563 33.6493 27.3981 33.018 28.0294L28.6319 32.4155C27.6251 33.4265 26.2346 34 24.8069 34C24.5057 34 24.2169 33.9752 23.9322 33.9257C18.3701 33.0097 12.8535 30.0512 8.40135 25.6032C3.95336 21.1592 0.999039 15.6466 0.070652 10.068C-0.209927 8.36383 0.355358 6.61019 1.58495 5.37233Z" fill="#023047"/>
</svg>
