<svg width="66" height="66" viewBox="0 0 66 66" fill="none" xmlns="http://www.w3.org/2000/svg">
<path d="M49.3661 38.3989C53.5399 34.0517 55.7838 28.3361 55.6844 22.3052C55.4794 9.86204 45.1868 -0.140181 32.7308 0.00148652C20.3115 0.14599 10.3125 10.2444 10.3125 22.6874C10.3125 28.5618 12.5497 34.1335 16.6121 38.3764C18.7189 40.5768 20.1121 43.3988 20.5372 46.7992C18.3383 47.9214 17.8807 50.8629 19.6493 52.5937C17.4624 54.7339 18.7734 58.4788 21.8335 58.7648C22.8549 63.0183 26.6576 65.9999 31.0107 65.9999H34.9892C39.3463 65.9999 43.1458 63.0146 44.1665 58.7648C47.2248 58.4789 48.5391 54.7355 46.3507 52.5937C48.1223 50.8599 47.6586 47.9198 45.4629 46.7992C45.8843 43.4305 47.2467 40.6064 49.3661 38.3989ZM18.1018 36.9499C14.4088 33.0929 12.375 28.0276 12.375 22.6874C12.375 11.4463 21.5173 2.19457 32.7548 2.06386C44.0697 1.93547 53.4358 11.0276 53.622 22.3393C53.7124 27.8224 51.6726 33.0186 47.8782 36.9705C45.5114 39.4357 43.895 42.7031 43.4334 46.4061H34.0312V35.0623H37.125C43.3799 35.0623 48.4688 29.9735 48.4688 23.7186V20.6248C48.4688 20.0553 48.007 19.5936 47.4375 19.5936H43.3125C38.7421 19.5936 34.7949 22.3106 33 26.2142C31.2051 22.3108 27.2579 19.5937 22.6875 19.5937H18.5625C17.993 19.5937 17.5312 20.0554 17.5312 20.6249V23.7187C17.5312 29.9736 22.6201 35.0624 28.875 35.0624H31.9688V46.4062H22.5666C22.0985 42.6687 20.4555 39.4081 18.1018 36.9499ZM42.0261 26.1334C41.651 25.7046 40.9993 25.6614 40.5711 26.0364L34.0312 31.7586V30.9374C34.0312 25.8197 38.1948 21.6562 43.3125 21.6562H46.4062V23.7187C46.4062 28.8364 42.2427 32.9999 37.125 32.9999H35.7445L41.9291 27.5886C42.3577 27.2135 42.4011 26.562 42.0261 26.1334V26.1334ZM31.9688 31.7586L25.4291 26.0363C25.0003 25.661 24.349 25.7046 23.9739 26.1332C23.5987 26.5618 23.6422 27.2133 24.0708 27.5885L30.2553 32.9999H28.875C23.7573 32.9999 19.5938 28.8364 19.5938 23.7187V21.6562H22.6875C27.8052 21.6562 31.9688 25.8197 31.9688 30.9374V31.7586ZM34.9893 63.9374H31.0108C27.7721 63.9374 24.9338 61.7904 23.9775 58.7812H42.0225C41.0662 61.7902 38.2281 63.9374 34.9893 63.9374ZM45.375 55.1718C45.375 56.0248 44.6811 56.7187 43.8281 56.7187C42.5713 56.7187 23.0054 56.7187 22.1719 56.7187C21.3189 56.7187 20.625 56.0248 20.625 55.1718C20.625 54.3188 21.3189 53.6249 22.1719 53.6249H43.8281C44.6811 53.6249 45.375 54.3188 45.375 55.1718ZM22.1719 51.5624C21.3189 51.5624 20.625 50.8685 20.625 50.0156C20.625 49.1626 21.3189 48.4687 22.1719 48.4687H43.8281C44.6811 48.4687 45.375 49.1626 45.375 50.0156C45.375 50.8685 44.6811 51.5624 43.8281 51.5624H22.1719Z" fill="#023047"/>
<path d="M7.21875 22.6875C7.21875 22.118 6.75701 21.6562 6.1875 21.6562H1.03125C0.461742 21.6562 0 22.118 0 22.6875C0 23.257 0.461742 23.7188 1.03125 23.7188H6.1875C6.75701 23.7188 7.21875 23.257 7.21875 22.6875Z" fill="#023047"/>
<path d="M9.26428 35.2007L4.79884 37.7788C4.30565 38.0636 4.13665 38.6943 4.4214 39.1875C4.70667 39.6815 5.33741 39.8494 5.83009 39.565L10.2955 36.9868C10.7887 36.7021 10.9577 36.0713 10.673 35.5781C10.3881 35.0849 9.75747 34.9162 9.26428 35.2007V35.2007Z" fill="#023047"/>
<path d="M4.79856 7.59645C9.57853 10.3561 9.38788 10.3129 9.77873 10.3129C10.8321 10.3129 11.2051 8.91362 10.2953 8.38832L5.82981 5.8102C5.33649 5.52544 4.70601 5.69444 4.42112 6.18764C4.13624 6.68096 4.30524 7.3117 4.79856 7.59645Z" fill="#023047"/>
<path d="M64.9688 21.6562H59.8125C59.243 21.6562 58.7812 22.118 58.7812 22.6875C58.7812 23.257 59.243 23.7188 59.8125 23.7188H64.9688C65.5383 23.7188 66 23.257 66 22.6875C66 22.118 65.5383 21.6562 64.9688 21.6562Z" fill="#023047"/>
<path d="M61.2015 37.778L56.7359 35.1999C56.2427 34.915 55.612 35.084 55.3271 35.5774C55.0424 36.0706 55.2115 36.7013 55.7047 36.986L60.1703 39.5642C60.6613 39.8478 61.2929 39.6821 61.5791 39.1867C61.8638 38.6935 61.6948 38.0628 61.2015 37.778Z" fill="#023047"/>
<path d="M56.2211 10.3129C56.6139 10.3129 56.4274 10.3526 61.2013 7.59647C61.6945 7.31171 61.8636 6.68098 61.5789 6.18778C61.2941 5.69471 60.6635 5.5252 60.1701 5.81034L55.7045 8.38847C54.793 8.91467 55.1693 10.3129 56.2211 10.3129Z" fill="#023047"/>
</svg>
