<svg width="59" height="59" viewBox="0 0 59 59" fill="none" xmlns="http://www.w3.org/2000/svg">
<path d="M57.4128 22.8443L50.3227 22.12C50.0666 21.3971 49.7722 20.6868 49.4422 19.995L53.9441 14.4691C54.5166 13.7665 54.4644 12.7447 53.8234 12.1037L46.8967 5.17699C46.2557 4.536 45.2339 4.48424 44.5312 5.05681L39.8894 8.83839C39.36 9.26962 38.6259 9.36954 37.9723 9.09766L37.9309 9.08056C37.2809 8.81183 36.8339 8.2235 36.7645 7.54425L36.156 1.58762C36.0637 0.685555 35.3048 0 34.3982 0H24.6023C23.6957 0 22.9363 0.685555 22.8445 1.58762L22.2359 7.54425C22.1666 8.2235 21.7196 8.81183 21.066 9.08191L21.0264 9.09811C20.3741 9.36909 19.6404 9.26917 19.1115 8.83839L14.4692 5.05636C13.7666 4.48424 12.7447 4.536 12.1038 5.17699L5.17703 12.1037C4.53604 12.7447 4.48382 13.7665 5.0564 14.4691L8.838 19.1114C9.26924 19.6407 9.36917 20.3744 9.09953 21.0235L9.08018 21.0694C8.8119 21.7194 8.22312 22.1664 7.54386 22.2357L1.58719 22.8443C0.68556 22.9361 0 23.6955 0 24.6021V34.3979C0 35.3045 0.68556 36.0639 1.58719 36.1557L7.54431 36.7643C8.22312 36.8336 8.8119 37.2806 9.08063 37.9319L9.09818 37.9738C9.36917 38.6256 9.26924 39.3593 8.838 39.8886L5.0564 44.5309C4.48382 45.2335 4.53604 46.2553 5.17703 46.8963L12.1038 53.823C12.7447 54.464 13.7661 54.5158 14.4692 53.9436L19.111 50.1616C19.6404 49.7304 20.3741 49.6309 21.0259 49.9014L21.0696 49.9194C21.7196 50.1882 22.1666 50.7765 22.2359 51.4557L22.844 57.4124C22.9363 58.314 23.6957 59 24.6018 59H34.3982C35.3043 59 36.0637 58.314 36.156 57.4124L36.7641 51.4557C36.8334 50.7765 37.2804 50.1882 37.9318 49.919L37.9741 49.9019C38.6259 49.6305 39.3596 49.7304 39.889 50.1616L44.5308 53.9436C45.2334 54.5158 46.2557 54.464 46.8962 53.823L53.8234 46.8963C54.464 46.2553 54.5162 45.2335 53.9436 44.5309L50.162 39.8886C49.7308 39.3593 49.6313 38.6256 49.9027 37.9715L49.9198 37.9306C50.1886 37.2806 50.7769 36.8336 51.4561 36.7643L57.4128 36.1557C58.3144 36.0639 59 35.3045 59 34.3979V24.6021C59.0005 23.6955 58.3144 22.9361 57.4128 22.8443V22.8443ZM55.4664 32.8022L51.0974 33.2483C49.1222 33.4504 47.4193 34.7274 46.6541 36.5806L46.6388 36.618C45.8681 38.473 46.1684 40.5814 47.4225 42.1209L50.1962 45.5257L45.526 50.1958L42.1212 47.4221C40.5817 46.168 38.4733 45.8678 36.621 46.6371L36.5822 46.6533C34.7277 47.4189 33.4506 49.1214 33.249 51.0965L32.8024 55.466H26.198L25.7515 51.097C25.5498 49.1214 24.2728 47.4189 22.4218 46.6551L22.3817 46.638C20.5272 45.8678 18.4187 46.168 16.8793 47.4221L13.4744 50.1958L8.80424 45.5257L11.578 42.1209C12.8321 40.5814 13.1323 38.473 12.3626 36.6207L12.3468 36.582C11.5811 34.7274 9.87827 33.4504 7.90307 33.2483L3.53403 32.8022V26.1978L7.90307 25.7517C9.87827 25.5496 11.5811 24.2726 12.3459 22.4194L12.3617 22.382C13.1323 20.527 12.8321 18.4186 11.578 16.8796L8.80424 13.4743L13.4744 8.80418L16.8793 11.5784C18.4187 12.832 20.5272 13.1322 22.3817 12.362L22.4182 12.3467C24.2723 11.5811 25.5498 9.87865 25.7515 7.90346L26.198 3.534H32.8024L33.249 7.90301C33.4506 9.8782 34.7277 11.5811 36.5809 12.3463L36.6187 12.362C38.4733 13.1322 40.5817 12.832 42.1212 11.5779L45.526 8.80418L50.1962 13.4743L45.9748 18.6563C45.5211 19.2131 45.4495 19.9891 45.7939 20.6193C46.4236 21.7716 46.9309 22.9965 47.3018 24.2591C47.5044 24.9478 48.1035 25.4456 48.8179 25.5186L55.4664 26.1978V32.8022Z" fill="#023047"/>
<path d="M33.0895 25.471L28.1624 30.1174L25.9113 27.9943C25.2454 27.3663 24.1654 27.3663 23.4995 27.9943C22.8335 28.622 22.8335 29.6405 23.4995 30.2685L26.9565 33.5289C27.2897 33.8431 27.7259 34 28.1624 34C28.5986 34 29.0352 33.8427 29.3679 33.5289L35.5005 27.7452C36.1665 27.1172 36.1665 26.0991 35.5005 25.471C34.835 24.843 33.7555 24.843 33.0895 25.471V25.471Z" fill="#023047"/>
<path d="M29.5 15C21.5047 15 15 21.5046 15 29.4998C15 37.4949 21.5047 44 29.5 44C37.4953 44 44 37.4949 44 29.4998C44 21.5046 37.4953 15 29.5 15V15ZM29.5 40.3702C23.5062 40.3702 18.6294 35.4935 18.6294 29.4998C18.6294 23.5056 23.5062 18.6293 29.5 18.6293C35.4938 18.6293 40.3701 23.5056 40.3701 29.4998C40.3701 35.4935 35.4938 40.3702 29.5 40.3702V40.3702Z" fill="#023047"/>
</svg>
